<svg data-v-423bf9ae="" xmlns="http://www.w3.org/2000/svg" viewBox="0 0 182.44286826289505 60" class="font"><!----><!----><defs data-v-423bf9ae=""><linearGradient data-v-423bf9ae="" gradientTransform="rotate(25)" id="1d0bac99-f9cd-413d-8b20-d4128a140b99" x1="0%" y1="0%" x2="100%" y2="0%"><stop data-v-423bf9ae="" offset="0%" style="stop-color: rgb(0, 102, 120); stop-opacity: 1;"></stop><stop data-v-423bf9ae="" offset="100%" style="stop-color: rgb(79, 168, 255); stop-opacity: 1;"></stop></linearGradient></defs><g data-v-423bf9ae="" id="f9581f0c-43c2-4154-9a35-69ed323da469" fill="url(#1d0bac99-f9cd-413d-8b20-d4128a140b99)" transform="matrix(4.285714577655423,0,0,4.285714577655423,-0.12857261981319823,-12.000000374657809)"><path d="M0.64 8.92C0.99 8.92 1.47 8.93 2.16 8.99C0.97 10.85 0.03 12.60 0.03 13.37C0.03 13.55 0.08 13.86 0.50 14.10C1.20 12.45 2.06 10.68 2.94 9.06C3.51 9.13 4.19 9.21 5.01 9.34C4.86 10.11 4.77 10.82 4.77 11.42C4.77 12.56 5.10 13.30 5.87 13.30C6.79 13.30 7.73 12.25 8.29 10.75L8.15 10.61C7.42 12.03 6.80 12.68 6.31 12.68C5.94 12.68 5.80 12.28 5.80 11.56C5.80 9.11 7.42 3.70 7.98 3.25C7.70 2.97 7.43 2.80 7.24 2.80C7.06 2.80 6.85 2.93 6.57 3.19C5.70 4.00 4.05 6.15 2.62 8.29C2.25 8.23 1.92 8.19 1.61 8.19C0.90 8.19 0.35 8.39 0.15 8.92ZM6.79 3.68C6.22 4.97 5.52 7.00 5.11 8.85C4.58 8.72 3.93 8.55 3.30 8.41C4.61 6.09 5.92 4.21 6.79 3.68ZM9.80 3.19C9.80 2.98 9.63 2.80 9.45 2.80C9.03 2.80 8.60 3.72 8.60 4.30C8.60 4.52 8.67 4.72 8.83 4.82C9.09 4.27 9.28 3.74 9.80 3.19ZM9.80 11.76C9.80 12.60 10.23 13.59 11.55 13.59C12.35 13.59 13.05 13.23 13.34 12.43C14.18 12.31 14.95 11.79 15.30 10.77L15.18 10.63C14.63 11.68 14.06 12.10 13.41 12.21C13.47 12.00 13.50 11.77 13.50 11.52C13.50 10.23 12.77 9.07 12.77 8.15C12.77 7.83 12.85 7.63 12.85 7.53C12.85 7.43 12.78 7.35 12.63 7.35C12.36 7.35 12.08 7.62 12.08 8.30L12.08 8.47C11.73 9.21 11.26 9.88 10.70 10.50C10.54 10.67 9.80 10.65 9.80 11.76ZM12.59 11.54C12.59 11.82 12.56 12.01 12.53 12.19C11.68 12.01 11.07 11.42 10.79 10.82C11.21 10.40 11.72 9.72 12.15 9.00C12.29 9.77 12.59 10.65 12.59 11.54ZM11.58 13.10C10.85 13.10 10.43 12.42 10.43 11.75C10.43 11.45 10.51 11.27 10.74 11.26C11.03 11.73 11.68 12.26 12.46 12.42C12.25 13.03 11.80 13.10 11.58 13.10ZM26.99 5.03C26.99 3.08 25.00 2.80 23.76 2.80C22.30 2.80 21.38 3.18 20.44 3.57C20.44 3.71 20.75 3.95 20.89 3.95C21.07 3.95 21.64 3.40 22.82 3.19C21.59 5.59 20.13 10.12 19.85 11.05C19.78 11.28 19.66 11.62 19.66 11.84C19.66 12.22 20.02 12.52 20.48 12.52C20.90 11.07 21.31 9.52 21.74 8.01C22.05 8.01 22.43 7.99 22.79 7.99C24.39 7.99 26.32 8.23 26.32 9.76C26.32 11.45 23.97 13.08 20.75 13.08C19.80 13.08 19.56 12.94 19.43 12.94C19.39 12.94 19.36 12.95 19.36 12.98C19.36 13.78 19.89 14.10 20.92 14.10C23.00 14.10 26.98 12.74 26.98 10.01C26.98 9.13 26.56 7.92 23.79 7.76C25.23 7.52 26.99 6.86 26.99 5.03ZM23.79 3.09C24.99 3.09 26.15 3.46 26.15 4.91C26.15 6.96 23.87 7.62 21.83 7.69C22.32 6.02 22.85 4.42 23.52 3.11C23.60 3.09 23.69 3.09 23.79 3.09ZM32.59 3.84C32.59 3.44 32.42 2.80 32.13 2.80C31.18 2.80 27.78 9.17 27.78 11.86C27.78 12.68 28.10 13.30 28.90 13.30C29.90 13.30 30.79 12.32 31.53 10.72L31.32 10.61C30.83 11.70 30.04 12.85 29.30 12.85C28.90 12.85 28.69 12.50 28.69 11.77C28.69 11.35 28.76 10.86 28.87 10.36C30.91 8.67 32.59 5.08 32.59 3.84ZM32.06 3.93C32.10 3.93 32.16 3.98 32.16 4.16C32.16 5.10 30.62 8.25 28.99 9.88C29.76 7.18 31.68 3.93 32.06 3.93ZM36.99 10.64C36.62 11.41 36.27 11.70 35.88 11.70C35.39 11.70 34.90 11.26 34.90 10.54C34.90 9.80 35.45 9.13 35.45 8.78C35.45 8.61 35.32 8.23 34.97 8.23C34.93 8.23 34.90 8.23 34.87 8.25C34.79 8.08 34.62 7.95 34.27 7.95C32.61 7.95 30.88 10.63 30.88 12.11C30.88 12.82 31.29 13.33 32.00 13.33C32.98 13.33 33.87 12.38 34.45 11.00C34.73 11.65 35.25 11.98 35.77 11.98C36.23 11.98 36.76 11.72 37.17 10.78ZM32.31 12.73C31.98 12.73 31.78 12.45 31.78 12.01C31.78 10.95 32.91 8.50 34.50 8.50C34.34 8.74 34.23 9.14 34.23 9.77C34.23 10.09 34.26 10.35 34.31 10.57C33.81 11.77 32.94 12.73 32.31 12.73ZM40.85 8.75C40.89 8.74 41.02 8.64 41.02 8.47C41.02 8.23 40.80 8.02 40.26 8.02C38.75 8.02 36.55 9.70 36.55 11.65C36.55 12.46 36.93 13.01 37.60 13.01C38.39 13.01 39.17 12.24 39.89 11.21C39.66 12.12 39.42 12.88 39.17 13.52C38.00 14.11 36.44 14.85 36.44 15.99C36.44 16.56 36.85 16.80 37.25 16.80C38.30 16.80 39.20 15.27 39.98 13.38C40.85 12.96 42.17 12.01 42.60 10.75L42.42 10.61C42 11.68 41.05 12.54 40.14 12.98C40.78 11.31 41.22 9.60 41.22 9.14C41.10 9.11 41.01 9.10 40.92 9.10C40.46 9.10 40.26 9.55 40.21 9.81L40.04 10.56C39.33 11.58 38.50 12.40 37.97 12.40C37.67 12.40 37.48 12.17 37.48 11.72C37.48 10.54 38.82 8.54 40.29 8.54C40.57 8.54 40.75 8.61 40.85 8.75ZM37.21 16.35C37.02 16.35 36.88 16.16 36.88 15.86C36.88 15.06 37.91 14.46 39.02 13.90C38.28 15.69 37.58 16.35 37.21 16.35Z"></path></g><!----><!----></svg>